<svg id="visual" viewBox="0 0 1200 400" width="1200" height="400" xmlns="http://www.w3.org/2000/svg" xmlns:xlink="http://www.w3.org/1999/xlink" version="1.1"><path d="M0 141L28.5 148.8C57 156.7 114 172.3 171.2 172.7C228.3 173 285.7 158 342.8 162C400 166 457 189 514.2 200.5C571.3 212 628.7 212 685.8 206.3C743 200.7 800 189.3 857.2 186.3C914.3 183.3 971.7 188.7 1028.8 198.5C1086 208.3 1143 222.7 1171.5 229.8L1200 237L1200 401L1171.5 401C1143 401 1086 401 1028.8 401C971.7 401 914.3 401 857.2 401C800 401 743 401 685.8 401C628.7 401 571.3 401 514.2 401C457 401 400 401 342.8 401C285.7 401 228.3 401 171.2 401C114 401 57 401 28.5 401L0 401Z" fill="#333" stroke-linecap="round" stroke-linejoin="miter"></path></svg>