<svg id="visual" viewBox="0 0 1200 700" width="1200" height="700" xmlns="http://www.w3.org/2000/svg" xmlns:xlink="http://www.w3.org/1999/xlink" version="1.1"><path d="M0 447L33.3 436.5C66.7 426 133.3 405 200 377.8C266.7 350.7 333.3 317.3 400 330.5C466.7 343.7 533.3 403.3 600 426.3C666.7 449.3 733.3 435.7 800 407.7C866.7 379.7 933.3 337.3 1000 326.8C1066.7 316.3 1133.3 337.7 1166.7 348.3L1200 359L1200 701L1166.7 701C1133.3 701 1066.7 701 1000 701C933.3 701 866.7 701 800 701C733.3 701 666.7 701 600 701C533.3 701 466.7 701 400 701C333.3 701 266.7 701 200 701C133.3 701 66.7 701 33.3 701L0 701Z" fill="#333" stroke-linecap="round" stroke-linejoin="miter"></path></svg>